<svg xmlns="http://www.w3.org/2000/svg" viewBox="0 0 601.9 181.2"><defs><style>.cls-1{fill:#5e5e5e;}.cls-2{fill:#fbfbfb;}.cls-3{fill:#cce5f4;}.cls-4{fill:#dbdcdd;}.cls-5{fill:#b5b7b8;}.cls-6{fill:#535252;}.cls-7{isolation:isolate;}</style></defs><title>Asset 3</title><g id="Layer_2" data-name="Layer 2"><g id="Layer_1-2" data-name="Layer 1"><circle class="cls-1" cx="90.6" cy="90.6" r="90.6"/><path class="cls-2" d="M40.5,45.5c.2-1.3.5-2.5,2.1-3,9.3-3.3,18.7-5.9,28.7-5.1,8,.7,14.7,3.6,19.1,11.2,9.1-11.8,21.3-12,34-9.7,4.1.7,8,2.1,12,3.1,1.9.5,3.4,1.3,3.5,3.6a41.73,41.73,0,0,0-.1,5q.9,30.3,2,60.5c-9.8-1.1-19.5-2-29.3-1.2-9.5.8-18.8,2.3-21.7,13.9V57.2h-.9v66.4c-1.3-8.1-7-11.2-13.9-12.6-12.4-2.5-24.8-.8-37.2.5.1-8-.3-15.9.3-23.9C39.8,73.6,40.2,59.5,40.5,45.5Zm21,7.4A44.65,44.65,0,0,1,82,58.2c1,.5,2.1,1.5,3,.1s-.5-1.7-1.3-2.1A43.72,43.72,0,0,0,49.6,52c-1,.3-2,.6-1.5,2,.4.9,1.3.9,2.1.7A33.83,33.83,0,0,1,61.5,52.9Zm-.1,40.4a52.37,52.37,0,0,0-11,1.5c-1,.3-2.7.2-2.4,1.9s1.8,1.1,2.9.8c10.8-3,21.1-1.3,30.9,3.8,1,.5,2.2,1.6,3,.2,1-1.9-1.1-2.1-2.1-2.6C76.5,95.2,69.6,93.6,61.4,93.3Zm24-14.9a17.68,17.68,0,0,0-2.2-1.6C72.8,71.2,62,69.6,50.5,72.7c-1,.3-2.8.2-2.4,1.8.4,2,2,1,3.2.7,10.1-2.6,19.7-1.3,29,3.1a29.62,29.62,0,0,0,3.1,1.5C84.4,80.2,84.9,79.4,85.4,78.4ZM119,50.1c-7.9.3-15.3,1.9-22,5.8-.8.5-2.6.7-1.6,2.4.7,1.1,1.7.6,2.6.1,10-5.4,20.6-7.1,31.7-4,1,.3,2.1.6,2.5-.7.5-1.8-1-1.7-2.1-2A61.9,61.9,0,0,0,119,50.1Zm13.3,46.5c0-1-.8-1.4-1.6-1.6-12-3.1-23.4-1.8-34.2,4.3-.8.4-2,.9-1.1,2.2a1.58,1.58,0,0,0,2.2.2c10.2-5.5,20.9-7.4,32.3-4.1C131,98,131.9,97.8,132.3,96.6ZM118.9,71.1a46.67,46.67,0,0,0-22,5.9c-.8.5-2.6.7-1.4,2.4.8,1.1,1.7.4,2.6,0,10.1-5.4,20.6-7,31.7-3.9,1,.3,2.1.5,2.4-.8s-.8-1.6-1.7-1.8A46.66,46.66,0,0,0,118.9,71.1ZM60.8,81.8a34.91,34.91,0,0,0-10.7,1.5c-.8.2-2.3.3-2.1,1.6.3,1.7,1.8,1.2,2.8.9a41.92,41.92,0,0,1,31.4,4c.8.4,1.7,1.4,2.6.1,1.1-1.6-.5-2-1.4-2.5A42.42,42.42,0,0,0,60.8,81.8Zm.2-21a34,34,0,0,0-10.2,1.3c-1,.3-3.2.1-2.6,2.1.4,1.5,2,.8,3.1.5a41.68,41.68,0,0,1,30.9,4.1c.9.5,2.1,1.7,2.8-.1.6-1.6-1-1.9-1.9-2.4A42.22,42.22,0,0,0,61,60.8Zm71.3,24.1c.1-1.2-.9-1.3-1.6-1.5-12-3.2-23.4-1.9-34.2,4.3-.9.5-1.9,1-1,2.2.6.9,1.4.6,2.1.2a42.41,42.41,0,0,1,32.3-4.2C130.9,86.1,131.9,86.2,132.3,84.9Zm0-21c0-1.2-1-1.3-1.7-1.5-12-3.2-23.4-1.9-34.2,4.3-.9.5-1.9,1-1,2.2.6.9,1.4.6,2.1.1a42.41,42.41,0,0,1,32.3-4.2C130.9,65.2,131.9,65.2,132.3,63.9Z"/><path class="cls-3" d="M143.7,48.8c13-.2,13-.2,13,12.5,0,23.5-.1,46.9.1,70.4,0,3.8-.8,4.8-4.7,4.5-15.2-1.3-30.5-2.3-45.8-3.4-2-.1-4-.4-5.9.6-6.1,3.2-12.2,2.7-18.3.2a14.36,14.36,0,0,0-6.8-.8c-15.3,1.1-30.6,2.1-45.8,3.4-4.4.4-5.2-1.1-5.1-5.1.2-25.5.2-50.9,0-76.4,0-4,1.2-5.3,5-5a47.15,47.15,0,0,0,7.5-.4c-1.2,3.7-5.1,5.9-5.1,10.5.2,22.4.1,44.8.2,67.3,2.1,1.7,4.5.9,6.7.8,12.6-.8,25.1-1.9,37.7-2.8a12.09,12.09,0,0,1,7.2,1.3,14.59,14.59,0,0,0,13.9.1,12.14,12.14,0,0,1,6.7-1.4c12.4.9,24.8,1.9,37.2,2.7,2.1.1,5.1,1.9,6.4-1.7.3-17.1,1.6-34.2,1.1-51.3C148.4,65.7,150.6,56.4,143.7,48.8Z"/><path class="cls-4" d="M143.7,48.8c6.9,7.6,4.8,17,5,25.9.5,17.1-.8,34.2-1.1,51.3a87.56,87.56,0,0,1-6-14.9c-.7-20.2-1.3-40.4-2-60.5-.1-1.7.1-3.3.1-5C141.1,46.6,142.4,47.7,143.7,48.8Z"/><path class="cls-4" d="M31.8,126.9c0-22.4,0-44.8-.2-67.3,0-4.6,3.9-6.8,5.1-10.5,1.3-1.2,2.5-2.5,3.8-3.7-.3,14-.7,28.1-1.6,42.1-.5,7.9-.2,15.9-.3,23.9C35.9,116.4,34.9,122.1,31.8,126.9Z"/><path class="cls-5" d="M31.8,126.9c3.1-4.8,4.1-10.5,6.8-15.5,12.4-1.4,24.8-3.1,37.2-.5,6.9,1.4,12.6,4.5,13.9,12.6V111.9h.8v11.8c3-11.6,12.2-13.1,21.7-13.9,9.8-.8,19.6.1,29.3,1.2a82.91,82.91,0,0,0,6,14.9c-1.3,3.5-4.3,1.8-6.4,1.7-12.4-.7-24.8-1.8-37.2-2.7a12.32,12.32,0,0,0-6.7,1.4,14.06,14.06,0,0,1-13.9-.1,12.09,12.09,0,0,0-7.2-1.3c-12.6.9-25.1,1.9-37.7,2.8C36.3,127.9,33.9,128.6,31.8,126.9Z"/><path class="cls-6" d="M61.5,52.9a36,36,0,0,0-11.3,1.7c-.8.2-1.7.3-2.1-.7-.5-1.3.5-1.7,1.5-2a43.77,43.77,0,0,1,34.1,4.2c.7.4,2.1.8,1.3,2.1s-2,.5-3-.1A45.49,45.49,0,0,0,61.5,52.9Z"/><path class="cls-6" d="M61.4,93.3c8.2.2,15.1,1.9,21.4,5.5,1,.5,3.1.7,2.1,2.6-.8,1.5-2,.3-3-.2-9.8-5-20.1-6.8-30.9-3.8-1.1.3-2.5.9-2.9-.8s1.3-1.6,2.4-1.9A57.12,57.12,0,0,1,61.4,93.3Z"/><path class="cls-6" d="M85.4,78.4c-.5,1-1,1.8-2,1.4a29.62,29.62,0,0,1-3.1-1.5c-9.3-4.4-19-5.7-29-3.1-1.2.3-2.8,1.3-3.2-.7-.4-1.6,1.4-1.5,2.4-1.8,11.4-3.1,22.3-1.5,32.7,4.1A17.68,17.68,0,0,1,85.4,78.4Z"/><path class="cls-6" d="M119,50.1a54.33,54.33,0,0,1,11.1,1.7c1,.3,2.6.2,2.1,2-.4,1.3-1.5.9-2.5.7-11.1-3.1-21.6-1.4-31.7,4-.9.5-1.9,1-2.6-.1-1-1.7.7-1.9,1.6-2.4C103.7,52,111.1,50.4,119,50.1Z"/><path class="cls-6" d="M132.3,96.6c-.4,1.2-1.3,1.4-2.4,1-11.3-3.3-22-1.5-32.3,4.1-.8.4-1.6.6-2.2-.2-1-1.3.3-1.8,1.1-2.2,10.8-6.1,22.2-7.4,34.2-4.3C131.5,95.2,132.3,95.6,132.3,96.6Z"/><path class="cls-6" d="M118.9,71.1a51.81,51.81,0,0,1,11.6,1.8c.9.3,2.1.4,1.7,1.8s-1.4,1.1-2.4.8c-11.1-3.2-21.6-1.5-31.7,3.9-.9.5-1.8,1.1-2.6,0-1.2-1.7.6-1.9,1.4-2.4C103.6,73,111,71.4,118.9,71.1Z"/><path class="cls-6" d="M60.8,81.8a43.91,43.91,0,0,1,22.6,5.7c.9.5,2.5.8,1.4,2.5-.9,1.3-1.8.3-2.6-.1a42,42,0,0,0-31.4-4c-1.1.3-2.5.8-2.8-.9-.2-1.3,1.2-1.4,2.1-1.6A32.73,32.73,0,0,1,60.8,81.8Z"/><path class="cls-6" d="M61,60.8a43.18,43.18,0,0,1,22.1,5.5c.9.5,2.5.8,1.9,2.4-.7,1.8-1.9.6-2.8.1a42.17,42.17,0,0,0-30.9-4.1c-1,.3-2.6.9-3.1-.5-.6-2,1.5-1.9,2.6-2.1A31.09,31.09,0,0,1,61,60.8Z"/><path class="cls-6" d="M132.3,84.9c-.4,1.3-1.4,1.2-2.4,1a42.41,42.41,0,0,0-32.3,4.2c-.8.4-1.5.8-2.1-.2-.8-1.3.2-1.7,1-2.2a44,44,0,0,1,34.2-4.3C131.4,83.6,132.4,83.7,132.3,84.9Z"/><path class="cls-6" d="M132.3,63.9c-.4,1.3-1.4,1.3-2.4,1a42.41,42.41,0,0,0-32.3,4.2c-.8.4-1.5.8-2.1-.1-.9-1.3.2-1.7,1-2.2,10.8-6.2,22.2-7.5,34.2-4.3C131.3,62.6,132.3,62.7,132.3,63.9Z"/><path class="cls-4" d="M90.6,111.9h-.8V57.1h.9C90.6,75.4,90.6,93.7,90.6,111.9Z"/><path class="cls-1" d="M230.6,44.6c4.8-.5,50.1-2.9,72.2-.2,47.5,6.7,57.6,17.7,59.1,19.8.8-5.3,1.5-10.3,2.3-15.3h.3c2.4,5.7,4.8,11.4,7.1,17.2,5.8,14,11.5,28,17.4,42,.6,1.3.6,1.9-1,2.4-11.6,3.6-23.2,7.3-34.9,11a9.68,9.68,0,0,1-1.2.2c.6-2.8,1.2-5.4,1.8-8,.9-3.6,1.5-7.2,2.1-10.8.1-.6.3-1.1-.4-1.5a79.76,79.76,0,0,0-51-10.2c-36.2,6.5-58.7,32.9-63.6,34.8Q235.7,85.2,230.6,44.6Z"/><circle class="cls-1" cx="511.3" cy="90.6" r="90.6"/><g class="cls-7"><path class="cls-2" d="M501.91,120.2q-.08-2.81-.08-4.22a39.35,39.35,0,0,1,2.34-14.3,32.57,32.57,0,0,1,5.55-9.14,105.31,105.31,0,0,1,10.12-9.8q7.3-6.45,9.49-10.27a16.56,16.56,0,0,0,2.19-8.36,19.49,19.49,0,0,0-6.41-14.41,21.7,21.7,0,0,0-15.7-6.21,21.11,21.11,0,0,0-15,5.63q-6,5.63-7.89,17.58L472.06,65q2-16,11.6-24.53t25.51-8.52q16.8,0,26.8,9.14t10,22.11A28,28,0,0,1,542.45,77q-3.52,6.33-13.75,15.39-6.88,6.09-9,9A20,20,0,0,0,516.6,108q-1,3.75-1.17,12.19ZM501,148.4v-16h16v16Z"/></g></g></g></svg>