<svg xmlns="http://www.w3.org/2000/svg" viewBox="0 0 181.2 181.2"><defs><style>.cls-1{fill:#F0F0F0;}.cls-2{fill:#383838;}.cls-3{fill:none;stroke:#383838;stroke-miterlimit:10;stroke-width:15px;}</style></defs><title>Asset 2</title><g id="Layer_2" data-name="Layer 2"><g id="Layer_1-2" data-name="Layer 1"><circle class="cls-1" cx="90.6" cy="90.6" r="90.6"/><path class="cls-2" d="M83.2,126.3a8,8,0,0,1-5.2-2.5L65.9,111.7,57,102.8c-2-2-2-4.1,0-6.1,1.6-1.6,3.1-3.2,4.7-4.7a3.9,3.9,0,0,1,5.9,0l12.8,12.8c1,1,1,1,1.8-.2,9.7-14.3,19.3-28.5,29-42.8.4-.5.7-1.1,1.1-1.6a3.62,3.62,0,0,1,4.8-.9c2.3,1.5,4.6,3,6.8,4.6a3.73,3.73,0,0,1,.7,5.2c-1.6,2.5-3.3,4.9-5,7.4-10.5,15.5-21,30.9-31.5,46.4a8.42,8.42,0,0,1-2.2,2.4A3.47,3.47,0,0,1,83.2,126.3Z"/><path class="cls-3" d="M127.5,142.4H53.7a19.85,19.85,0,0,1-19.8-19.8V62.7A19.85,19.85,0,0,1,53.7,42.9h73.8a19.85,19.85,0,0,1,19.8,19.8v59.8A19.93,19.93,0,0,1,127.5,142.4Z"/></g></g></svg>
