<svg xmlns="http://www.w3.org/2000/svg" viewBox="0 0 181.2 181.2"><defs><style>.cls-1{fill:#383838;}.cls-2{fill:#f0f0f0;}</style></defs><title>Asset 2</title><g id="Layer_2" data-name="Layer 2"><g id="Layer_1-2" data-name="Layer 1"><circle class="cls-1" cx="90.6" cy="90.6" r="90.6"/><path class="cls-2" d="M142.62,117.14,118.08,55.7a4.82,4.82,0,0,0-1.53-1.94,3.59,3.59,0,0,0-2.24-.82H94.36a1.91,1.91,0,0,1,1.35.56,2,2,0,0,1,.65,1.32l.88,11.3a1.65,1.65,0,0,1-.47,1.35,1.76,1.76,0,0,1-1.3.53H85.71a1.76,1.76,0,0,1-1.29-.53A1.65,1.65,0,0,1,84,66.12l.88-11.3a2,2,0,0,1,.65-1.32,1.91,1.91,0,0,1,1.35-.56H66.88a3.58,3.58,0,0,0-2.24.82,4.82,4.82,0,0,0-1.53,1.94L38.58,117.14A17.72,17.72,0,0,0,37,124q0,4.3,2.71,4.3H81.18a1.72,1.72,0,0,1-1.29-.56,1.66,1.66,0,0,1-.47-1.32l1.18-15.06a2,2,0,0,1,.65-1.32,1.9,1.9,0,0,1,1.35-.56h16A1.91,1.91,0,0,1,100,110a2,2,0,0,1,.65,1.32l1.18,15.06a1.66,1.66,0,0,1-.47,1.32,1.71,1.71,0,0,1-1.3.56h41.43q2.71,0,2.71-4.3A17.72,17.72,0,0,0,142.62,117.14ZM99.49,96.48A1.35,1.35,0,0,1,99,97.66a1.8,1.8,0,0,1-1.24.47H83.42a1.8,1.8,0,0,1-1.24-.47,1.35,1.35,0,0,1-.47-1.18v-.24l1.41-18.83a2,2,0,0,1,.65-1.32,1.91,1.91,0,0,1,1.35-.56H96.07a1.9,1.9,0,0,1,1.35.56,2,2,0,0,1,.65,1.32l1.41,18.83v.24Z"/></g></g></svg>