<svg xmlns="http://www.w3.org/2000/svg" viewBox="0 0 184.9 186.9"><defs><style>.cls-1{fill:#383838;}.cls-2{fill:#F0F0F0;}</style></defs><title>Asset 1</title><g id="Layer_2" data-name="Layer 2"><g id="Layer_1-2" data-name="Layer 1"><ellipse class="cls-1" cx="94.8" cy="99.6" rx="62.1" ry="77.3"/><path class="cls-2" d="M184.9,93.6c0,51.8-41.4,93.4-92.8,93.3C41.2,186.8-.1,144.9,0,93.4S41.5,0,92.4,0C143.5-.1,184.9,41.8,184.9,93.6ZM78.6,153.9c7.2,0,14.3-.2,21.5.1,3.3.1,4.3-.8,3.9-4.1-.5-3.9,1-7.5,2.4-11.1,1.4-3.8,4-5.9,8.2-6a110.5,110.5,0,0,0,11.4-1.3c3.8-.6,5.1-2.9,3.7-6.5-.8-1.9-1.8-4,.2-5.5,4-2.9,2.5-7.4,3.2-11,.6-3.2.8-6.1,3.7-7.5,6.2-2.9,4.7-5.9.8-9.5-6.1-5.6-7.2-12.2-6.7-19.9,1-17-11.8-33.8-28.4-37.6a51.8,51.8,0,0,0-27.6,1.6C59.6,40.5,48.4,49.9,46.1,66.7a44.63,44.63,0,0,0,8.5,33.6c3.1,4.2,4.3,8.8,4.5,14,.5,12.1-2.2,23.8-4.8,35.5-.7,3.2-.2,4.4,3.4,4.3C64.6,153.7,71.6,153.9,78.6,153.9Z"/><ellipse class="cls-2" cx="86" cy="56.9" rx="34.5" ry="15.9" transform="translate(-11.06 22.08) rotate(-13.76)"/><ellipse class="cls-2" cx="64.9" cy="68.7" rx="14.1" ry="11.8"/></g></g></svg>
